<svg width="409" height="49" viewBox="0 0 409 49" fill="none" xmlns="http://www.w3.org/2000/svg">
<path d="M35.1988 29.25L5.20545 16.25V38.5H0V9.5H5.20545L35.1988 22.5L64.4485 9.5H69.6539V38.75H64.4485V16.5L35.1988 29.25Z" fill="#59BA47"/>
<path d="M134.35 38.75H85.2703V9.25H134.35V15H90.4758V21H134.35V26.75H90.4758V32.5H134.35V38.75Z" fill="#59BA47"/>
<path d="M155.42 29.25V38.5H150.215V9.25H193.098C197.312 9.25 199.295 11.5 199.295 16.25V22C199.295 26.75 197.312 29.25 193.098 29.25H155.42ZM192.106 15.25H155.42V23.5H192.354C193.593 23.5 194.337 22.75 194.337 21.25V17.5C194.089 16 193.345 15.25 192.106 15.25Z" fill="#59BA47"/>
<path d="M257.794 38.5H214.911V9.5H257.794C261.76 9.5 263.991 11.75 263.991 16.5V20C263.991 22.5 262.999 23.75 260.768 24.25C262.999 24.5 263.991 26 263.991 28.25V32C263.991 36.25 262.008 38.5 257.794 38.5ZM256.802 32.75C258.042 32.75 258.785 32 258.785 30.5V29.25C258.785 27.75 258.29 26.75 256.802 26.75H220.116V32.75H256.802ZM220.116 21H256.802C258.042 21 258.785 20.25 258.785 18.5V17.5C258.785 16 258.042 15.25 256.555 15.25H220.116V21Z" fill="#59BA47"/>
<path d="M284.813 38.5H279.607V9.5H284.813V31.75L323.482 9.5H328.687V38.75H323.482V16.25L284.813 38.5Z" fill="#59BA47"/>
<path d="M393.632 38.75H350.749C346.782 38.75 344.799 36.5 344.799 31.75V16.25C344.799 11.75 346.782 9.25 350.749 9.25H393.632V15H351.74C350.501 15 349.757 15.75 349.757 17.25V30.25C349.757 31.75 350.501 32.75 351.74 32.75H393.632V38.75Z" fill="#59BA47"/>
</svg>
